<?xml version="1.0" encoding="utf-8"?>
<!-- Generator: Adobe Illustrator 21.0.1, SVG Export Plug-In . SVG Version: 6.00 Build 0)  -->
<svg version="1.1" id="Layer_3" xmlns="http://www.w3.org/2000/svg" xmlns:xlink="http://www.w3.org/1999/xlink" x="0px" y="0px"
	 viewBox="0 0 169.5 199.6" style="enable-background:new 0 0 169.5 199.6;" xml:space="preserve">
<style type="text/css">
	.st0{fill:#584C5C;}
	.st1{fill:#FFFFFF;}
</style>
<path class="st0" d="M0,169.3c0,0-0.6,14,9.2,22.5c0.9,0.8,7.4,6.2,16.8,6.2c13.6,0,23.3-11.2,31.1-20.3c1.9-2.2,3.8-4.6,24.9-38.8
	c1.3-2.1,2.5-4.1,3.6-5.8c1.1,0.1,2.2,0.3,3.3,0.4c1.6,0.1,3.2,0.1,4.9,0.1c3,0,5.8-0.2,8.5-0.4c0.4,1.4,0.9,3.4,1.5,5.8
	c3.7,14.9,7.6,42.8,9,51.2c0.6,3.4,1.2,6.2,1.6,8c3.6-0.1,7.3-0.2,10.9-0.3c-0.5-14.6-0.7-29.7-0.6-45.3c0.1-7.8,0.3-15.5,0.6-23
	c8.8-3.8,15.4-7.9,19.8-11C153.3,113,163,106,167.4,94c1.3-3.5,3.8-10.3,0.5-13.8c-2.3-2.4-7.5-3.4-10.4-0.6c-2,1.9-2.6,5.5-1,8.1
	c1,1.6,2.5,2.3,3.2,2.6c-0.4,0.9-1,2.3-1.9,3.8c-0.4,0.6-1.4,2.2-4,5.1c-2.3,2.5-4.3,4.3-4.9,4.8c-6.2,5.3-12.3,8.8-16.6,11.3
	c-2.4,1.4-4.5,2.4-5.9,3.2c0.2-1.2,0.4-2.4,0.6-3.6c0.2-1.3,0.5-4,0.9-7.4c6.9-58.8,10.6-88.2,10.7-89c2.3-13.3,3-15.5,0-16.8
	c-2.9-1.2-7,8.2-9.3,13.5c-4.3,9.9-9.2,21.3-14.5,34L93.5,94.5c0,0-23.8-22.3-42-21.5c-9.1,0.4-15.3,2.8-18,7.4
	c-3.9,6.7,0.5,15.7,3,20.6c8.4,16.9,24.7,25,33.8,28.6c1.5,0.6,3.1,0.8,3.1,0.8c1.1,0.2,2.1,0.3,2.9,0.4c-3.9,6-18.3,30.9-25.7,39.1
	c-0.8,0.9-1.4,1.5-1.8,2c-1.3,1.3-16.8,16.8-27.4,13.6c-1.5-0.4-5.7-1.7-7.9-5.6c-0.7-1.4-1-2.6-1.1-3.5c3.9-0.7,6.9-3.2,7.8-6.4
	c0.7-2.9-0.7-5.5-1.1-6.3c-0.4-0.7-1.8-3.2-4.8-4.4c-3.7-1.5-7.2,0.1-8.3,0.7C0.7,162.8,0.1,168.8,0,169.3z"/>
<path class="st1" d="M88.5,105.8L80,122.2c0,0-16.6-4.1-24.2-11.9S44,96.5,43.1,93.4c-0.9-3.1-3.8-8.4,1.4-10.1
	c5.3-1.7,12.4,0.6,14.8,1.3S76.3,89.6,88.5,105.8z"/>
<path class="st1" d="M94.3,115.1c-1.3,2.8-2.6,5.6-3.9,8.4c1,0.2,2.1,0.5,3.4,0.6c2,0.2,3.7,0.1,5.1-0.1c-0.5-1.4-1.1-2.9-1.9-4.5
	C96.1,117.8,95.2,116.3,94.3,115.1z"/>
<path class="st1" d="M112.3,132.6c0.3,1,0.6,2.5,1,4.3c1.1,5.4,1.4,8.6,1.6,8.6c0.2,0,0-3.5,0.2-10.1c0-1.5,0.1-2.7,0.1-3.5
	C114.2,132.2,113.3,132.4,112.3,132.6z"/>
<path class="st1" d="M100.4,103.6c1.6,2.7,3.3,5.8,4.9,9.2c1.7,3.6,3.1,6.9,4.3,10.1c0.8-0.1,1.6-0.2,2.5-0.3c1.6-0.3,2.9-0.8,4-1.3
	c2.9-23.2,5.8-46.4,8.8-69.7C116.8,68.9,108.6,86.3,100.4,103.6z"/>
</svg>
